<svg version="1.2" xmlns="http://www.w3.org/2000/svg" viewBox="0 0 524 198" width="524" height="198">
	<style>
		.s0 {
			fill: #000000
		}
	</style>
	<g id="Layer">
		<path id="Layer" fill-rule="evenodd" class="s0"
			d="m474.5 192.2l-2.1 0.7-7.6-3.6-2.1-2.1-2.6-5.6v-11.2l2.4-8.3 3.2-7.3 5.1-7.8 3.2-3.5 1.7-2.7 4.1-4.1 7.7-2.7 2 0.1 1.3 1.4-3.5 5.7-4.6 4.6-1.4 2.4-5.6 6.6-4.8 10.3-1.8 9.5 2.6 5.6 3.8 1.6 3.7-1.6 7-3.9 3.8-4.8 2.8-2.8 2.5-1.5 4.9-11.7 2.8-9v-14l-2.8-19 0.6-1-1.8-4.4-4.4 1.8h-8.2l-6.7-4.7-1.6-2.6v-5.2l3.6-8.6 2.5-1.5 1.7-2.2 4-3 0.9-1.4 3-2 9.2-2.8 4-4.4 1.6-0.4 2.9 1.9 2.4 3.4 0.1 11.1-0.1 2.1-2.4 6.3-3.2 5.3-3.3 3.3 0.1 9.1 2.7 15.9-0.6 1 0.8 2-0.1 24.1-5.6 14.6-3 4-3.3 3.3-1.7 2.7-4.1 4.1-5.3 3.9-1.7 1.1-6.4 2.4m-465.4-44.8l-3.6-1.6-1.1-1.1-2.4-4.4-0.2-1.4 1.7-4.6 3.6-2.7 4.1-0.1 2 0.8 3.4-1.8 0.2-3.5 0.7-1-0.8-2 1-3-0.1-3-0.7-1 0.6-1-1.6-5 0.6-1v-1l-0.6-1 0.6-1-1.6-11 0.6-1-0.6-1 0.7-1 0.1-2v-5l-0.8-2 0.6-2-0.7-1-0.1-4v-25l0.9-2 0.1-2v-5l-0.8-2 0.6-1-0.6-1 0.8-2v-7l-0.1-2-0.9-2 0.8-2-0.6-1 0.6-1-1.8-10 0.1-1.1 2.4-3.4 1-0.9 2-0.1 1.7 0.8 1.6 4.5 3.8 1.9 11.6 3.5 13.6 6.6 11.2 4.2 8.2 4.2 5.1 5.1 1.6 2.6 0.1 3.1-2.7 7.7-3.1 3.1-6.9 5 12.9 5.5 5 2.9 2.1 2.1 1.4 2.4 2.2 1.7 2.5 4 2.5 9.5 0.1 3.1-2.8 10.9-6 10.8-6.7 6.8-2.7 1.7-4.6 4.6-3 2-8 4-27.2 10.6-6.4 5-5.1 0.1-3.1-0.9-4.6 1.6zm35.1-23l14.6-5.6 5-2.9 2.6-2.6 6.4-4.4 5.7-5.2 4.2-7.5 1.8-6.1-1.8-6.1-1.8-3.6-3.2-3.8-2.9-2.3-9-4.1-7.6-2.5-18.1-0.1-2 0.8-2 0.2-3-1h-8.4l-1.9 7.5 2.7 19.9 2.9 14-0.6 1.1 2 3.2 2.8 15.2 2.6-0.1zm126.6 0.7l0.4-1.3h-3.1l-1 0.6-2.2-1.5 0.4-0.6-5.9-5.5-2.1-3-2.4-5.9-6.1 6-6.9 4-6.7 2.6h-7.1l-3.7-1.6-2.9-2-1.7-2.7v-8.1l2.5-5.7 3.1-4 7.1-7.1 2.6-1.7 2.4-2.9 8.2-4.6 5.4-2.3h4.1l-4.3 1.6 0.2 1-0.8-0.5-1.4 1.4-0.5-0.4-4.6 4-4.3 2.4-4.1 4.1-1.5 2.4-2.5 2.6-3 6-1.6 4.8 1.8 4.4 1.5 0.9h1.1l0.9-0.7 2.1 0.7 6.7-2.6 2.3-2.3 2.6-1.7 6.1-6.1 2.6-4.6v-1.1l-0.7-1 2.3-9.3 2.4-3.5 3.2-2.2 1.5-0.3 0.3 2.3-1.1 1.3-1.6 4.8 1.1 1.1 3.2-3.5 1.4 0.3v1.1l-3.8 10.9 3.7 9.7 3.1 3.1 6.6 4.5 1-0.6 1.4 1.3-0.8 4 0.8 2.7-3.3 3.7h-1.1l-1-0.7-1.5 1.3zm60.3-1.3l-1 0.7-6-1.6-8.7-4-2.6-2.5-5.5-3.6-3.6-6.6v-8.1l2.7-4.9-1.7-13.1 1.8-25.1 3.1-20.3 2.5 0.1 0.5 1.3-0.2 2.1-0.6 0.9 0.6 1.1-1.6 13.9 0.6 1-0.6 1 0.8 2-1 3 0.8 2-0.7 1 0.7 3.1-0.6 0.9 0.6 1-0.6 1.1 1.6 13.1 3-3 8.6-3.5h6.2l8.5 2.5 7.1 4 4.1 4.2 2.8 5.5 1.8 6.1v9.1l-1.7 3.7-3 4.7-2.1 2-4 2.4-10.3 3.3zm132-0.3l-1-0.7-2-0.1-2 0.8-4.4-2.8-0.9-1.5 0.7-2.1-1.7-1.9 0.7-1.1-1.9-9.9 0.2-4.1 0.6-0.9-0.6-1 0.6-1-0.6-2.1 0.8-1.9-0.8-2.1 1.8-11.9-0.8-2 0.7-1-0.7-3.1 0.6-0.9-0.6-2.1 0.7-2-0.7-1 1.7-9.9-0.9-2 0.2-3.1 0.6-0.9-0.6-1 0.7-1 0.1-2-0.1-2.1-0.8-1.9 0.7-2-0.6-1.1 2.9-13.4 1.4 0.1 0.7 0.6 1.7 4.7-0.7 1.1 0.7 2-0.7 0.9-0.1 2.1 1.8 8.9-0.7 1.1 5.7 44.9-0.7 1.1 0.8 2-0.1 2-0.7 1 0.6 1-0.6 0.9 0.7 3.1-0.7 1 2.6 3.9-0.5 0.8 1.6 1.6 0.3 1.7 0.6 1-2.5 6.6-4 1.6 0.5 0.8zm52 0l-6.1-1.7-3.4-1.6-2.2-1.2-3.8-3.9-3-6.9 0.1-6.7 1.8-1.7-0.7-1.6 1.6-2v-1l-0.6-1 0.3-0.3 0.8 0.5 6.4-8.9 4.1-4.1 2.4-1.4 6.6-5.6 5.6-2.6h4.2l15.6 3.6 3 2 2.1 2.1 2.6 5.6v11.1l-4.7 9.7-6.7 8.8-4.3 3.3-4.7 2.5-1-0.7-5.6 1.9zm-112-1l-1.1-0.6-0.9 0.6h-3.1l-1.2-1.1-9.8-2.6-1.6-0.8-2.8-2.2-0.9-1.4-2.6-1.7-2.8-3.9-2.6-5.6-0.1-10 3.7-9.7 2.4-1.5 1.7-2.3 1.2-0.6 1.8-2.7 10.2-7.2 10.4-5.4 2.1 0.7 1.7-1.5 1.5 1.4 0.7-0.5 1 0.6 1-0.6 3.7 2.5 3.1 3.1 1.6 2.7-3.5 8.6-2.5 1.6-2.7 2.6-11.6 4.5h-10.1l-2.7-1.6-2.6 7.3 2.6 6.7 5.7 3.6 1.1-0.7 12.2 2.8 6.5 1.8 0.6 0.7v1.1l-1.6 4.7-5.1 5.7-4.2 0.6zm-63.2-11.6l3-3 1.6-3.7v-6.1l-2.6-5.6-2.1-2.1-5.9-3.1-4.7-1.5h-1.1l-1 0.7-1-0.6-3.7 1.5-3.1 2.1-1.5 2.7 0.6 1-2.5 2.2 0.6 1.4-1.6 1.6 0.5 0.8-0.6 2 1.6 3.7 6 6 3.7 1.7 9.1-0.1zm190.9-2.9l5-5.3 5.7-9.4v-4.7l-1.6-1.6 0.4-0.6-2.1-1.5-1.1 0.6-0.9-0.6-5-0.2-1.1 0.1-3.4 1.9-0.5 0.8-2.7-0.7-1.7 1.8h-1.7l-1.7-1.7-2.5-3.9-0.5 0.5-3 4-3.4 7.4 0.2 0.8-1.3 1.7 0.6 1.8-0.8 2 0.1 5.1 3.7 4.3 1.6 0.9 1-0.6 2 0.8 4.1-0.1zm64.1-8.1l1.7-13.5 1.8-6-0.2-0.6h-2.1l-2.6 1.6-4.1 4.1-5 6.9-1.6 4.7v2.1l2.3 2.3h7.1zm9.1-11l2.6-7.7 0.1-2-0.5-1.3-2 2.9-2.4 6.3 0.2 5.2zm-204.8-6.3l1.2-1.1 7.5-2.5 2.3-2.3 0.3-1.5-3.3-2.3-2-0.1-1.1 0.1-6.6 3.6-5.7 4.7 0.4 1.4 5 0.1zm-239.1-29.6l4.8-2 3-1.9 2-2.1 1.6-3.7-1.5-2.7-2.1-2.1-3-2-8-4-10.4-4.5-9.8-5.7-11.4-4.4-2.1 0.1-0.3 0.3 0.6 2-0.6 1 0.6 1-0.6 1 1.8 6-0.8 2 0.6 1-0.6 1 0.8 3-0.1 2-0.7 1 0.8 2-0.8 2 0.6 1-0.6 1 0.6 1-0.6 1 0.8 2-0.8 2 0.6 1-0.7 1.5 2.9 1.1 9.5 1.7 1-0.6 1 0.6 4 0.2 3-0.9 1.1 0.7zm107.3 70.3h-0.6m201.3-8.7v-0.6m-191 0.6v-0.6m37-14.4v-0.6" />
	</g>
</svg>