<svg version="1.2" xmlns="http://www.w3.org/2000/svg" viewBox="0 0 391 187" width="391" height="187">
    <style>
        .a {
            fill: #0062cc
        }

        .b {
            fill: #fff
        }
    </style>
    <path fill-rule="evenodd" class="a"
        d="m14.5 178.9l-2.3-2.2-4.1-2.6-2-2.6-0.1-2 0.1-3 0.7-1-0.6-1 0.8-2-0.1-2-0.7-1 0.6-3-0.6-1 1.6-2-1.6-4 0.6-1-0.6-1 1.6-2-0.6-1 0.6-1-1.6-2.8 1.7-1.5 0.1-1.7v-8l-0.8-2 0.8-2v-7l-1-3 0.1-2 0.7-1-0.6-1 0.6-1v-1l-0.6-1 0.6-1-0.6-1 0.8-2-0.8-2 0.6-2-0.8-2v-20l0.8-2-1.6-11 1.3-1.5 0.5-1.5v-2l-1.7-2.2 0.7-1.8-0.8-2 1.5-3.7-0.9-1.3 1.2-2v-5l-0.9-2 0.1-2h1.6v-1l-0.6-1 0.6-2-0.8-2 0.5-3.5-0.7-1.4 4-3.9 3.9-2.4-0.5-0.8 2.8-4.4 1.5-0.2 2-1.7h1l1 0.6h1l1-0.6 1 0.7 4 0.1 24-1.8 1 0.7h2l1-0.7 2.1 0.7 4.9-1.9 2 0.8 1-0.7 3-0.1 2 0.8 1-0.7 5-0.1 2 0.8 2-0.8h30l3 1 1-0.1-1.2-1.6 1.3-0.2 5.9 1.9 2-0.8 1 0.6 19.9-1.7 4.1 0.9 4-0.1 1-0.7 1 0.6 1-0.6 2 0.8 3-0.1 1-0.7 1 0.7 5 0.1 2-0.8 1 0.6 1-0.6 19 1.6 2-0.6 1 0.7 2 0.1h7l2-0.8 2 0.8 2-0.1 1-0.7 1 0.6 1-0.6 1 0.6 2-0.8 2 0.8h1l1-0.6h1l1 0.6 2-0.6 1 0.6 2-0.6 1 0.6 1-0.7 2-0.1 2 0.1 1 0.7 1-0.6 1 0.6 2-0.8h7 1l2 1.2 1.3-1.1h1.7l1 0.7 1-0.7 2-0.1 2.5 0.5 1.8 1.4 1-0.4-0.6-1 1.3-0.5h7l2 0.8 15-1.8 2 0.1 1 0.7h1l1-0.6 2 0.6 1-0.6 1 0.7 2 0.1 3-0.1 2-0.9 2 0.1 2 0.9 2-0.8 1 0.6 2-0.8 2 0.8 2-0.6 1 0.7 4 0.1 2-0.8 8 1.6 2-0.8h15l2 0.8 2-0.8 15 1.8 1-0.6 6.1 1.7 1.8 1 3.1-0.9 3 0.1 3.3 3.6 2.1 62.8-1.9 19 0.1 3 0.7 1-0.8 2 1 3-0.9 2-0.1 2v52l0.8 2-0.6 1 0.6 2-4.3 4.3-6.1-1.7-3.9 1.9-4-0.1-1-0.7-1 0.6-2-0.8-3 0.1-1 0.7-3-0.8-2 0.1-1 0.7-3-0.8-3 0.1-1 0.7h-1l-1-0.6-2 0.6-1-0.6-12 1.8-4-0.1-1-0.8-2-0.1h-5l-2 0.8-2-0.8h-13l-2 0.9-3 0.1-3-0.1-1-0.7-1 0.6h-1l-1-0.6-1 0.6-1-0.6-1 0.7-2 0.1-2-0.8-2 0.8h-12l-3-1-2 0.9-3 0.1-2-0.9-2-0.1-2 0.8h-1l-1-0.6-2 0.6-2-0.6-1 0.6-24.8-1.5-1.5 1.6-1-0.4 0.6-1-1.3-0.5-1.3 0.5 0.3 1.3-2 0.2-1-0.1 1.2-1.6-1.2-0.3-2.2 1.7-1.8-0.7-4 0.1 1 1.7h-1l-1-0.6-2 0.8-2-0.1-1-0.7-2 0.6-1-0.7-3-0.1-2.2 1.7-0.8-0.5-2 0.8-5-0.1-2-0.9-2 0.8h-1l-1-0.6-1 0.6-1-0.6-3 0.8-2-0.8-2 0.6-1-0.6-2 0.8h-6l-3-0.8-1 0.7h-2l-1-0.7-2 0.8-3-0.8-2 0.8-4-0.1-1-0.7-1 0.6-1-0.6-2 0.8-2-0.8-1 0.6-3-1.6-1.8 1.5-1.4-1.4-0.8 0.5-1-0.7-2 1.1-2-1.1v1.7l-2.8-1.6-1.2 1-1.3-1.1-4.7-0.1-2.2 0.3 1.2 1.5h-1l-1-0.6-1 0.7h-2l-1-0.7-1 0.6-2-0.8-2 0.9-2 0.1-2-0.9-3-0.1-2 0.1-1 0.7-1-0.6h-1l-1 0.6-2-0.6-1 0.7-2 0.1-2-0.9-2-0.1-2 0.8-1-0.6-2 0.8-2-0.8-2 0.8-2-0.8-1 0.7-2 0.1-3-0.1-1-0.7-2 0.8-1-0.1-1.8-1.6-1.5 1.6-1.7-0.7h-1l-1 0.6-2-0.6-1 0.6-2-0.8h-12l-2 0.8h-1l-1-0.6-6.8 1.5m239.8-4.5l-1.3 0.3 1.3 0.3zm112-27.4l0.4-1.3-1.4-1.3-0.3 0.3 0.3 1.5zm1.2-7l-0.1-0.6-1.4 0.3 0.1 3.2zm-118.8-9.7h0.6l1.6 1.4h0.9l5.9-6.4 1.4-0.9 3.4-7.4 2.1-2 5.7-2.6 1 0.6 2.1-0.6 1.9 0.8 4.1-0.1 0.2-0.4-1.3-1.3-1.3 0.3 0.8-2-0.8-2v-4l2.7-4.4 3-2 0.3-1.6 2.5-6.7 2-4 3.8-2.6h3.1l1.5 1.3h0.9l1.9-2.4 0.8-0.4-1.4-1.4 3.5-6.5 0.8-0.8 4.7-1.8 1.2-1.2 0.1-0.8h-24.1l-0.3 0.3 0.7 1.1-2.6 7.6-3.5 2.5-1.3 0.3-1-0.1-2.6-1.6-1.6-2-3.7 2.6h-5.1l-2.4-1.8-3.8-8.3-0.7-0.6h-14.1l-0.3 0.3 0.8 2-0.1 3.1-2.6 4.6-2.3 2-1.4 0.9-6 1.7-2.1-0.8-2 0.2-1 0.6-1.3-0.3-0.1 1.1 1.6 2.1-0.7 1.8 0.2 10.1 1 1.9 2.9 13.4 2.5-0.8 6 1.7 0.4-2.3-1.7-2.2 1.6-3.8-0.7-1.6 3.6-4.2 2.4-1.4 3.6-3.6 2.7-1.5h2.1l0.9 0.6 1-0.6h4.1l1.6 2.2 1.9 5.6 0.7 0.5-0.6 1 0.6 1-0.6 1 0.7 1.1-1.7 7.7-2 2.6-3.7 0.1-2-1.2-2.2 2.9-0.6-0.4-2.1 2.6h-1.1l-1-0.7-1.3 1.3v1l0.7 1v2.1l-1.6 3.6-2 2 3.9 1.5 1.5-1.4 0.5 1.3zm119-12.7l-1.4-0.3-0.3 0.4 1.5 2.2zm-168.1-6.3l-2.5-2.7 0.6-1-0.6-1.1 1.6-3.9v-1l-0.5-0.8 1.4-1.4-0.5-0.9 2.5-5.6 1.8-1.8 7.7-2.8 0.6-0.7v-1.1l-1.8-4.4h-10.5l-2.1-0.9-9.9 1.7-10-1.7-1 0.7-2 0.2-2-0.2-1-0.6-2 0.6-2-0.7-2 0.8-2-0.7-1 0.6-1-0.6-2 0.6-2-0.7-2 0.8-1.7-0.6-1.6 4.1-3.1 3.5-6.6 0.2-4 3.7h-4l-1-0.6-2 0.8-4-0.2-3.3-5.3 0.6-1-1.6-2 0.8-2-0.8-2 0.6-1-0.7-2.1 1.7-2.9-0.7-1v-1l0.7-1-0.7-1v-2.1l2.6-5.6 2.1-2.4-1.8-3.3-6.5-0.1-2 0.8-1.1-0.6-3.9 1.6-2-0.8-2 0.1-1 0.7-1.1-0.7-7.9 1.7-1-0.7-3-0.1-2 0.1-1 0.7h-1l-1-0.6-2 0.6-1-0.6-1 0.6-2 0.2-2-0.9-2.1-0.1-0.5 0.1-1.7 3.2 3.1 2.5 1.5 2.4 4.6 1.7 0.8 0.9 1.6 3.6v2.1l-0.8 2 0.1 2 0.7 1-0.8 2v11l1.8 13.8 2.4 3.4 2.6-9 5.1-7.6 6.3-2.9 2.3-2.1 4-0.1 1.8 0.8 1.8 2.2 1.7 3.4 0.1 3.1-1.8 6.9-0.1 5.1 0.1 0.5 3.3 1.8 1.1-0.6 2 0.6 2-0.8h21l3 0.1 2 0.9 2-0.2 1-0.6 2 0.8 2-0.2 1-0.6 2 0.8 15-0.2-2-1.8-0.3-0.5 0.6-1-2.6-3h1.6l-1-2 1.1-1.3-0.1-2.7h-1.6l2.6-4-0.3-1.3-1.3 0.3 3.3-2.5 0.3-0.5-0.3-1.3 1 0.6 2-1.7 4-0.1 1 0.1 3 1.9 0.3 0.5-0.7 2 1.6 2.2 1.1-0.2-0.6 1 0.6 2-1.6 3 0.6 1-0.7 2 0.7 1-3.6 6 1.3 0.5 3.1-0.2zm-10.9-11.6l-0.3-1.4-0.4 0.3 0.4 1.3zm139.7-66.5v-0.8l-1.4 0.3 0.4 1.3zm0-3l-1-0.8-0.3 1.3 1.3 0.3zm-107.7-15.5l-1.3-0.5-2.3 0.5 1.3 0.5 2.1-0.2zm-19.3-0.3l-1.3 0.3 1.3 0.3zm67-1l-1.3 0.4 1.3 0.3zm-168 163.6v-0.6m-4 0.6v-0.6m252.3-0.7h-0.6m-89-1h0.6m107.7-38.7v-0.6m-118.3-3.7h0.6m3.4 0h0.6m113.7-0.7v-0.6m0-5.4v-0.6m-1-2.4v-0.6m-128-6.4v-0.6m-55-1.4v-0.6m12 63.6v-0.6m-10-64.4v-0.6m2-3.4v-0.6m36-11.4v-0.6m-37.3-1.7h0.6m-151.3-11.7v-0.6m267-6.4v-0.6m1-0.4v-0.6m-303.7-29.7h-0.6m330.3-12.7v-0.6m-20 0.6v-0.6m-288-1.4v-0.6m227-12.4v-0.6m-5 0.6v-0.6m-9 0.6v-0.6m-19 0.6v-0.6m-2 0.6v-0.6m-7 0.6v-0.6m-2 0.6v-0.6m54-0.4v-0.6m-12 0.6v-0.6m-8 0.6v-0.6" />
    <path class="b"
        d="m266 127.5l1.8-3.7 2-2.3 0.1-1.6-2.4-1.7-4.8 4.6-1.6 2.7 2.3 2.4m-101.6-22.2l3.1-2.2v-3l-1.4-1.3-1.3 0.1-3.1 2.2v2l1.9 2m126.8-6l3.1-4.9-0.4-2.4-2.5 0.3-3.3 3.3-1.5 2.7 1.3 1.4 2 0.1m-172.8-8.3l6.2-2.2 6.1-3 2.5-1.5 1.3-1.5-1.3-1.4h-2l-5.3 4.1-9.4 3.6-0.6 0.7 0.8 1" />
    <path fill-rule="evenodd" class="a"
        d="m374.4 149.9l-2.6-1.6-3.6-3.8 0.6-1-0.6-1 0.6-1-0.7-1v-3.1l1.8-5.9-1.7-4 1.7-2.9 0.1-4.1-0.1-2.1-1.8-2.8v-4.1l2.7-3.8 3.7-1.7 3.1 0.1 2.6 1.6 2.7 2.8v2l-0.6 0.8 1.4 1.4-0.5 0.8 0.6 1-0.6 1 1.6 4-0.3 1.5-1.2 1.7 0.7 1.8-0.1 9.1-2.4 5.4-1.2 1.7-0.5-0.4-1.6 6-1.2 1.2m-126.5-16.5l-2-0.8-1 0.7-3 0.1-2-0.8-2 0.6-0.3-0.3 0.5-0.8-2.6-1.6-0.4-0.8-2.4-0.5-0.2-2.3 0.7-1-0.7-1v-2l5.1-3.2 1.5-2-3.3-0.2-3.8 1.8h-2.2l-5.4-2.9-1.2-1.8-1.7-3.6 0.9-4.1-1.9-2.4v-0.6l1.7-2-0.6-1 0.8-2-0.1-2.1-1.8-3.8-0.1-4.1 0.5-2.3-1.1-0.1-2.3 1.8-1.4 2.9-1.5 3.7 0.6 1-1 1.2-3.6 13.5-2.1 2.7-6.5 2-1.1-0.1-1-0.7-3-0.1-2 0.1-1 0.7-1-0.6-1 0.6-1-0.6-2 0.8-3-0.1-2-0.7-2 0.8h-20l-3-1-2 0.8-11-1.8h-9l-6.9 2.9-3.1 0.1-1.1-0.1-2.6-1.6-2.3-2.1-1 0.6-1-0.6-4.7 1.6-2.3 2.1-2 0.1-1.7-0.8-2.7-7.1-6 3.8-1.6 1.9-1-0.6-4 2.7-4 0.1-1.1-0.1-2.9-1.9-0.3-0.5 0.6-1-1.5-3.7-4.5-2.5-2.5-3.5-3.1-3.1-4.5-1.9-12.2-2.5-13-4.1-1 0.6-3.7-1.6-3.7-4.1-1.6-1.1-0.3-0.5 0.5-0.8-2.9-3.5-1.6-3.4-1.9-3-0.2-1.4 1.7-3.7 4.6-2.6h2.2l2.9 1.9 6.2 7.7 0.3-0.2 1.8 1.4 5.8 0.2 6 2.1 15 3.6 6 2.1 3.2-2.4-0.6-0.7-3.5-1.6-2.6-4.6v-1.2l1.7-3.6 1-1.3-1.3-1.3-1 0.6-2.4-1.7-2-3.5 0.1-1.1 0.6-1v-1l-0.6-1 3.5-3.2-0.5-0.8 0.5-0.7 7.8-2.6 2 0.8 4-0.1 1-0.7 1 0.6h1l1-0.6 2 0.8 4-0.1 1-0.7 2 0.8 5-0.1 1-0.7 2 0.8h6l2-0.8 2 0.8h10l3-0.1 1-0.7 6.1 1.7 4.3 3v3.7l-1.6 2.6-3.8 3.6-1-0.6-3.3 2-5 2.3 2.3 1.3 1-0.6 3.7 1.6 2.7 2.1 0.6 1.9 11.9-1.7 12.1 1.9 2-0.1 1-0.7 3 0.8h4l2-0.9 2-0.1 4 0.1 2.1 0.8 11.8-1.8 1.1 0.1 1 0.6 4-1.6 1 0.6 3.7-1.6 3.3-2 1 0.6 1-0.6h1l1 0.6 2.3-0.5 2.7 1.7 3 3.8 1.5-0.3 1.9-2.4 2.1 0.4 1.5-0.7 1.3 1.1 1.7-0.7 2.9 1.7 2.5 0.1 1.9-7.3 1-1 5.4-2.4 3.6-2.6 12.7-3.7 2.1 0.1 2.6 1.6 2.7 3.7v4.1l-2.7 3 2.4 0.4 7.4-2 1.8-2.2 9.8-3.9 13.8-4.6 7.8-3.9 1.6-1.5 4.4-1.6 3.3-2 1 0.6 5.4-3.7 2.8-4.3 5-4.1-1.4-1.4 1.6-1.8-0.1-3-1.3-0.5h-5l-22.2 2.8 0.6 1.8-1.6 2.6-1.8 1.6-1.7 0.1-1.5-1.6-0.8 0.5-4-2.6-1 0.6-2.7-1.5-1.7-2.7v-7.1l2.7-2.8 4.3-2.2 4.9-1.6 24.5-2.9h8l2 0.8 1-0.6 6 1.6 1-0.6 6.5 2.7 2.5 2.1 0.3 1.5-0.6 1 1.8 4-0.1 2.1-1.6 3.6-6 10-3.1 3.1-2.4 1.4-1.8 1.8-2.7 4.7-2.1 2.1-5.4 2.5-2.7 2.1 0.9 2.6-0.1 6-5.7 4.8-1.8 0.9-22.3 6.8 4.9 7.2 1.8 8.1-2.3 1.7-0.3 0.5 0.3 1.3-1-0.6-3.6 2.3-6.9 2.5-0.8 1.5 0.6 1-1.5 6-3.1 8.9-1.2 2.1-1.5 1.5-2 1.1-19.8 3.6zm-7.6-17.4l-0.4-1.3-0.3 0.2 0.4 1.3zm-6.3 13.3l-0.1-0.6m6.1-9.4l-0.1-0.6m-19-5.4v-0.6m-135.9-3.4l-0.1-0.6m15.1-11.4l-0.1-0.6m120.3-0.7h-0.6m-118.6 0.3l-0.1-0.6m1.1-0.4l-0.1-0.6m2.1-0.4l-0.1-0.6m231.1-56.4l-0.1-0.6m1.1-1.4l-0.1-0.6m-0.3-1.7h0.6" />
    <path fill-rule="evenodd" class="b"
        d="m213.5 127l-2.6-0.1-1.8-2.3v-1.2l1.8-3.4 2.4-2.8 3.4-5.4 4.6-4.6 5.4-7.4 2.6-2.6 3.4-5.4 2.6-2.6 2.4-4.4 4.8-4.7 2 0.1 0.4 1.4-2.7 7.6-4.1 3.7-1.8 3.3-3 4-4.6 4.6-4.4 6.4-4.2 3.7-0.2 2.6-3.8 3.4-0.2 3.6-1.1 2m-129.3-5.5l-1-0.1-1-0.9-0.3-1.5 0.8-1 1.1-0.4 1.8 1.8 7.6 0.1 7.2-1.8-3.2-2.2-0.4-1.6 4-50 1.8-3.3 1.6-0.9h1l0.7 0.5 1.6 5.6 1.2 2.2-2.9 22.8-1.1 4.2 0.1 3 1.4 1.5 0.5 1.5-1.9 5.9-0.1 3.1 2 6.4 16-5.4 7.2-4.2 3.8-3.8 2.2-3.3 2.7-6.6v-10.2l-1.8-8.2-1.8-4.4-3.1-4.8-2.1-1.9-1.7-0.2-5.2-3.2-7.7-1.7-22-1.8-1 0.7h-2l-1.3-1.4-0.1-1.6 2.3-1.8h2.2l7.9 2.7 2-0.8h6l7.8 1.6 7.6 1.9 10.3 4.3 3 1.9 6.1 6.1 1.9 3.8 1.7 4.8-0.9 3.1 0.1 2 0.9 2-0.1 3.1-4.6 9.6-3.1 4.1-8 6-12 6-20.4 6.4zm19-4.8l-2.3 0.3 2.3 0.4zm155-5.2l-1-1-0.4-1.6 1.8-3.3 1.9 4.1 0.7 0.7h9l4.7-2.6 1-1 1.6-9.8-3.7-4.4-3.6-1.9-1.1 0.6-6-1.7-3.3-2v-1.6l2.7-3.8 5.9-3 3.7-1.6h7.1l2.3 2.4-1.8 2h-1l-1.9-2.4h-2.7l-3.6 1.6-2.3 3.1-0.8-0.5-1.5 3.2 0.5 0.7 8.5 2.5 4 2 3.7 3.1 2 2.1 0.2 1.6 0.7 1v4.1l-1.8 2.9-2.8 1.8-6.5 2.4-8 2zm-58.1 1.8l-2.4-1.6-5-2.2-0.5-2-4-3.8-7.4 6.1-6.6 3.6h-11.1l-2.3-3.3v-2.2l2.6-5.6 2-3 2.1-2.7 1.2-0.6 1.8-2.4 2.4-1.9 1.6-2.5 8-6 5.2-3.2 1.5-0.3 2.9 1.6 2.1-0.8 1.3 0.5 0.1 9-0.9 3 0.1 9.1 4.3 5.3h3.1l2-0.9 1.3 0.5-0.3 1.5-3.5 2.9-1.1 1.6zm-22.3-4.5l6.8-5.2 1-2.6-0.1-2-0.8-2 0.1-4.1 3.7-7.8-0.3-1.4h-2.1l-2.3 3.1-4.1 2.6-1.8 3.3-3.3 2.3-3.6 4.7 0.5 1.3-2.4 3.5-0.4 1.5 0.8 2v1l-0.7 1 0.9 1 1.5 0.4zm48.3-15.4l-3 0.1-2.5-0.6-5.8-6.9v-1.1l0.6-0.9-2.7-2.4-0.2-1.7-0.7-0.9-0.1-1.6 3.4-1.8 3.5 2.7 3.3 3.9 3.4 7.4 3.1 2.4-0.8 1z" />
</svg>