<svg version="1.2" xmlns="http://www.w3.org/2000/svg" viewBox="0 0 391 187" width="391" height="187">
	<title>Babelog - page 4-svg</title>
	<style>
		.s0 { fill: #0062cc } 
		.s1 { fill: #ffffff } 
	</style>
	<g id="Layer">
		<path id="Layer" fill-rule="evenodd" class="s0" d="m192.5 179.1l-3-0.1-2 0.1-2 0.9-2-0.8h-1l-1 0.6-2-0.6-2 0.6-1-0.6-1 0.6-1-0.6-1 0.6-2-0.6-2 0.6-2-0.8-2 0.8-12-1.6-1 0.6-1-0.7h-2l-1 0.7-5-1.7-2.2 1.7-3.8-1.6-1 0.6h-1l-1-0.6-1 0.6-11-1.6-2 0.6-1-0.6h-1l-1 0.6-2-0.8h-28l-2 0.8-1-0.6-1 0.6-1-0.7-3-0.1-2 0.1-1 0.7-1-0.6-1.5 0.3-1.7-1.2-1.8 0.7h-17l-2-0.8-1 0.6-22.9-2.7-1.1 0.1-1 0.7h-3l-2-1.7-1 0.7h-2.1l-7.3-3.8-0.2-2.6-0.7-1 0.6-1-1.7-8.9 0.1-1.1 0.6-1v-1l-0.6-1 0.6-2-0.6-1 0.6-2-0.6-1 0.8-2-0.8-2 0.6-1-0.6-2 0.6-1-0.6-1 1.6-15-0.6-1 0.6-1-0.8-2 1.2-2-1.2-2 1-5-0.9-2-0.1-2 1.8-12-0.7-1v-2l0.9-2-0.1-2-0.7-1 0.8-2-0.1-5-0.7-1 0.6-1-0.6-1 0.6-2-0.6-1 0.8-4-0.9-2-0.1-2v-16l0.8-2-0.8-2 0.8-2-0.8-2 0.1-4 0.7-1v-1l-0.6-1v-1l0.6-1-0.6-2 0.6-1-0.8-2 1.8-12.8 1.2-1.2 1.5-0.5 2 0.1 3 2.8 2 0.1h22l2-0.8 1 0.6 1-0.6 1 0.6 1-0.7 4-0.1h7l2 0.8 1-0.6 1 0.7 2 0.1 2-0.1 1-0.7 2 0.8h25l2-0.8h1l1 0.7 3 0.1 4-0.1 2-0.7 2 0.8 3-1 2 0.9 2 0.1 2-0.1 1-0.7 1 0.6 2-0.8 3.1 0.9 46.9-1.7 1 0.6 1-0.6 2 0.8 3-0.1 1-0.7h1l1 0.6h1l1-0.6 1 0.6 1-0.7 2-0.1 2 0.1 2 0.9h18l1-0.1-1.2-1.6 1.3-0.2 3.9 1.7 1-0.6 2 0.8 2-0.8h1l1 0.6 26-1.6 1 0.6 21-1.6 2 0.8 13-1.8 1 0.6 1-0.6 2 0.8 2-0.8 1 0.6 8.6-0.9 52.4-2.7 2.1 0.7 4.8-1.8 3.1-0.1 2.1 0.1 7.1 1.9 4.2 2.9 0.6 1.1 3.5 2 1.9 2.5 0.1 3-2.9 16.2-0.9 1.8 3.3 4.5 0.5 1.5-0.8 2 0.6 1-0.6 1 0.6 1-0.6 1 0.6 1-1.9 2.5-1.7 3.3 1.5 1.4-0.6 0.8-0.1 2 0.1 2 0.7 1v1l-0.6 1 0.6 1-0.8 2 0.8 3-0.8 2 0.8 2-0.6 1 0.6 1-0.6 2 0.7 1 0.1 2-1 3 0.8 2-0.6 1 0.6 1-0.6 1 0.6 1-0.6 1 0.8 2-1.9 10.1 1.7 6.9-0.7 1-0.1 2 1.8 10-0.6 1v1l0.6 1-0.6 1 0.6 1-0.7 1-0.1 4 0.1 2 0.7 1-0.6 2 0.6 1-0.6 1 0.7 1 0.1 5-0.8 2 0.6 1-0.6 1 2.7 17.1-1.6 3.6-2.2 1.7-0.6 1.1-3.6 3.5-0.4 0.3-2-0.8-3 0.8-1-0.6-1 0.7-2 0.1-2-0.9-2-0.1-2.2 1.7-1.8-0.5-2 0.6-1-0.6-2 0.6-1-0.7-4-0.1-2 0.1-1 0.7-1-0.6-1 0.7h-2l-1-0.7-1 0.7-2 0.1h-5l-2-0.8-2 0.8-2-0.1-1-0.7-1 0.7-2 0.1-3-0.1-1-0.7-1 0.6-1-0.6-2 0.8h-9l-2-0.9-3-0.1h-18l-2 0.8-1-0.6-1 0.6-1-0.6-2 0.8h-7l-2-0.8-1 0.6-2-0.8-2 0.9-2-1.1-2 1.2-2-0.8-63.8 1.6m65.8-2.6l-1.3 0.3 1.3 0.3zm113-16l-1.3 0.4 1.4 0.3zm-20.7-64.7l-0.4-1.3-0.3 0.3 0.4 1.3zm19.7-70.4l-1.4 0.4 1.4 0.3zm-4-20l-1.4 0.3 1.4 0.3zm-100 171.6v-0.6m-225-3.4v-0.6m-11-0.4v-0.6m-9 0.6v-0.6m215-7.4v-0.6m-96-53.4v-0.6m-2 0.6v-0.6m-4 0.6v-0.6m-125-4.4v-0.6m1-8.4v-0.6m11-23.4v-0.6m361-29.4v-0.6m-1-1.4v-0.6m-11-11.4v-0.6m-150.7-16.6l-0.6-0.1m-9.4 0.1l-0.6-0.1m154.3-4.7v-0.6"/>
	</g>
	<g id="Layer">
		<path id="Layer" class="s1" d="m159 132.5l0.9-1v-3l-1.2-1.3-0.8-2.3-1.9-9.4v-10l0.8-3-0.8-2v-6l2.9-27.6 2.9-9.3 1.1-2v-2.1l-1.4-1.3-2.8 2.6-3 6-2 5.7-2.3 9.7-4.9 12.7-8.2 13.3-3.6 3.6-1.7 2.7-5.8 5.8-8 6-7.6 4.6h-5.7l-1.8-2.3 1.5-5.9 2.9-6.7 4.2-6.2 6.1-4 4.7-1.6 2.4 1.7 0.1 0.6-0.3 1.3-2.5 3.7v1l1.3 0.3 0.5-0.3 2.9-4v-4l-0.7-0.7-3.7-1.6-4.9 1.6-6.8 3.9-7.1 7.1-4.9 7-1.8 4.7 0.1 4 1.6 1.7 5.7 1.7 2.1 0.1 3.1-0.1 3.6-1.7 12-7.9 11.8-11.8 1.7-2.7 2.6-2.6 5.4-9.4 0.8-0.6 0.5 1.3-0.1 2.1-1.9 9.4-5.5 2-0.3 0.5 1.3 1.3 3.4-0.8 2.6 14.8 4.2 9.4 1.8 1.6 1-0.6 2 0.8m32.5-8.5l0.9-1 0.1-4-2.9-6.9v-4.2l2.7-5.6 1.9-3 6.1-4.3-1.3-0.5-2.1 0.1-2.6 1.6-3.1 3.1-3 5.3-3.5-9.5-2.9-5.8-0.8-0.7-3 0.1-0.4 2.3 1.1 1.2 3.7 17 2.8 8.5 2.1 5 0.7 0.8 1 0.9m38.4-6.8l7-2.6 5.3-3.2 1.6-1.8-0.3-1.3-2-0.1-3.3 3.2-7.6 3.6-3.1 0.1-1.3-0.5 0.6-3-0.7-1v-3.1l1.6-3.6 4.1-6.3-0.6-1 0.3-0.5 4.3-3.3 2.9-1.4-1.4-2.1-6.5 3.5-7.8 7.8-5.9 9.9v4.1l3.4 4.3m-6.8-29.1l10.2-1.9 31.8-3.6-1.2-1.1-1-0.1h-10l-22.8 2.9-8.2 1.9-2.4 1.1 0.4 0.9"/>
	</g>
</svg>