<svg version="1.2" xmlns="http://www.w3.org/2000/svg" viewBox="0 0 391 187" width="391" height="187">
	<title>poetry</title>
	<style>
		.s0 {
			fill: #0062cc
		}

		.s1 {
			fill: #ffffff
		}
	</style>
	<g id="Layer">
		<path id="Layer" fill-rule="evenodd" class="s0"
			d="m43.5 190.2l-1 0.6-5.8-1.6-2.9-1.9-2.1-2.1-1.7-3.7 0.1-3 0.7-1v-1l-0.6-1 0.8-2-0.1-2-0.7-1 0.6-3-0.6-1 1.6-2-1.6-4 1.7-3.9-0.7-3.1 0.6-1-0.6-1 0.7-1 0.1-2v-8l-0.8-2 0.8-2v-6l-1-3 0.1-2 0.9-2-0.1-3-0.7-1 0.6-1-0.6-1 0.7-1 0.1-4-0.9-2-0.1-2 0.1-3 0.9-2-0.1-2-0.8-1-0.1-3 0.1-3 0.7-1-0.7-1-0.1-2 0.8-2v-1l-0.6-1v-1l0.6-1-0.8-2 0.1-2 0.7-1-0.8-2 0.9-2 0.1-4-0.5-1.3-1.3 0.3v-1l0.6-1-0.5-0.8-0.1-2.4 1.6-3.8-0.6-1 0.6-1-0.6-1 0.7-1 0.1-2-0.8-2 0.6-1-0.7-1v-3l1.6 1.2 0.3-1.2-0.1-3-0.8-1-0.1-2 0.1-2 0.7-1-0.6-1 1.6-7-0.7-1v-2.1l1.6-2.6 1.8-1.7h3.1l5.9 2.7 1-0.6 1 0.6 1-0.6 1 0.6 1-0.6 1 0.6 10-1.6 2 0.6 1-0.6 1 0.6 1-0.7 3-0.1 3 0.8 1-0.7 5-0.1 2 0.8 8-1.8 5 0.1 1 0.7 32-1.6 2 0.8h5l2.4-1.9 0.9 0.4-0.6 1 1.3 0.5 4-0.1 1-0.7 1 0.6h1l1-0.6 1 0.7 2 0.1 3-0.1 1-0.7 2 0.8 2-0.8 1 0.7 3 0.1 2-0.1 1-0.7 1 0.7h2l1-0.7 1 0.6 2-0.8h28l2 0.1 2 0.9 4-0.1 1-0.7 1 0.6 1-0.6 15 1.6 2-0.8 2 0.8h1l1-0.6 2 0.8 2-0.1 1-0.7 1 0.6 1-0.6h1l1 0.6h1l1-0.6 1 0.6 2-0.8 2 0.1 1 0.7 1-0.6 1 0.6 3-0.8 2 0.8 1-0.7 2-0.1 2 0.8 10-1.6 2 0.8 3-0.1 1-0.7 1 0.6h1l1-0.6 2 0.8 2-0.8 1 0.7 2 0.1 2-0.8 1 0.6 1-0.7 2-0.1 2 0.1 1 0.7 1-0.6 1 0.6 1-0.6 2 0.8 2-0.8h1l1 0.6 1-0.6 1 0.6 1-0.7 2-0.1 3 0.1 1 0.7 1-0.6 1 0.6 2-0.6 1 0.6 1-0.6 1 0.6 1-0.7 5-0.1 2 0.8 1-0.7 2-0.1 2 0.1 2 0.9 4-0.1 1-0.7 1 0.7 4 0.1 3-0.1 1-0.7 2 0.6 1-0.6 34.3 1.8 11.2 1.1 2.5 1.7 2-1.7h2l3.4 2.8 1.3 1.8 1.7 61.8-1.9 20 0.1 2 0.7 1-0.7 1v2l0.9 2-1 5v41l0.8 2-0.8 2v8l0.9 3.1-1.7 3.6-0.7 0.7-4 0.1-3-1-6 2-3-0.1-1-0.7-2 0.8-2-0.8-2 0.8-2-0.8h-1l-1 0.6-2-0.6-1 0.6-2-0.8-2 0.8h-1l-1-0.6-2 0.8-2-0.9-2-0.1-2 0.8-1-0.6-56 1.6-1-0.6h-1l-1 0.6-1-0.7-2-0.1-2 0.8-1-0.6-2 0.8-2-0.1-1-0.7-1 0.6-1-0.7-2-0.1h-26l-2 0.8-4-1.8-2 0.8-2-0.8h-14l-2 0.8-1-0.7-2-0.1-2.2 1.7-1.8-0.7-3 0.1-2 1.7h-1l-1-0.6-3 0.8-2-0.8-1 0.6-1-0.7-2-0.1-1 0.1-2 1.7h-1l-1-0.6-1 0.6-1-0.6-1 0.6-1-0.6-1 0.6-1-0.6-1 0.6-2-0.6-1 0.6-1-0.6-1 0.7-2 0.1-3-0.1-1-0.7-1 0.6-2-0.8-3 1-5-1-3 0.1-1 0.7-1-0.6h-1l-1 0.6-2-0.6-1 0.6h-1l-1-0.6-1 0.6-1-0.7-2-0.1-2 0.8-14-1.6-1 0.6-2-0.8-2 0.8-1-0.6-1 0.6-1-0.7-2-0.1-3 0.8-1-0.6h-1l-1 0.6-1-0.7-2-0.1-3 0.1-2 0.9-2-0.1-2-0.9-2 0.1-1 0.7-1-0.6-2 0.6-1-0.6-4 1.8-5-1.8-2 0.8h-4l-1.8-0.7-2.2 1.6-1-0.7-1 0.6-2.9-1.7-1.1 0.1-1 0.6h-1l-1-0.6-2 0.8-2-0.8-2 0.8-2-0.8h-1l-1 0.6-1-0.6h-1l-1 0.6-1-0.6-1 0.6-1-0.6-1 0.6-1-0.7-2-0.1-2 0.8-1-0.7-2-0.1-6 1.8-1-0.6-1 0.6-1-0.6-4.8 1.5m352.8-32.9l0.3-1.3-1.3-1.3-0.3 0.3 0.3 1.5zm1.3-5.3l-0.6-1 0.7-1-0.2-2.2-1.5 2.1 0.1 4.3zm0.1-22l-0.4-1.4-0.3 0.3 0.4 1.3zm-39-86l-0.3-1.3-1.4 0.3 0.2 3.2zm-0.4-3.4l-1.3 0.3 1.3 0.3zm-74-16l-1.3 0.3 1.4 0.4zm-3 0l-1.4 0.3 1.4 0.3zm-36.8 162.4l-0.6-0.1m-11.4 0.1l-0.6-0.1m-9.6 0.3l-0.1-0.6m163.8-1.6l0.5-0.1m-338.2-10.7l-0.1-0.6m-17.9-3.4l-0.1-0.6m367.1-28.4l-0.1-0.6m0.1-3.4l-0.1-0.6m0.1-1.4l-0.1-0.6m-331.9-43.4l-0.1-0.6m-36-34.4l0.1-0.6m311-14.4l-0.1-0.6m-92.9-14.4l-0.1-0.6m45.1-0.4l-0.1-0.6m-3.9 0.6l-0.1-0.6m-9.9 0.6l-0.1-0.6m-1.9 0.6l-0.1-0.6m-2.9 0.6l-0.1-0.6m-8.9 0.6l-0.1-0.6m-38.9 0.6l-0.1-0.6m-92.7-2.6l-0.6-0.1" />
	</g>
	<g id="Layer">
		<path id="Layer" fill-rule="evenodd" class="s1"
			d="m287.5 139.9l-2.3-2.4 1.5-2.7 9-12 2.6-2.6 5.4-7.4 15.8-15.8 6.5-4.5 1.5-0.3 0.3 0.3-0.3 1.5-2.7 1.7-6.8 6.8-5.7 7.7-3.6 3.6-6.4 9.4-3.6 3.6-2.6 4.1-1.4 0.9-2.9 4-1.8 3.7m-99.6-11.6l-9.6-2.6-1.5-2.5-0.2-1.4 4.7-8.9-1.7-2 0.4-2.5 1-0.8 1.5 1.3 1.5 0.3 10.3-10.1 5.6-2.6h2.2l3.4 2.4 1.8 3-1.5 3.7-2.5 1.5-2.6 2.5-4.8 2-9.4 2.8-1.8 4.5 0.8 1 1.7 4.7 12.3 1.8-3.2 1.7zm40 0l-13.8-1.7-0.7-1.7 0.2-4 4.5-8.6 7.2-7.8 1.4-0.9 1.6-2.5 3.6-1.6 1.4 0.5-1.6 4.7-2.5 1.5-5.1 5.1-2.5 8.4-1 1.2 0.6 1-0.6 1.1 2.3 2.3h7.1l3.7-1.6 4.8-3.8 1.5-0.3 0.3 1.4-3.4 3.5-4.1 2.2zm34-3l-0.8-0.7-2.6-7.6 0.1-5.1 2.6-4-2.7-8.1-1.8-3.6-1.5-1.6-1.6-3.6 2.3-2.4 3.4 2.7 6.8 10.9 6.8-3.6 2.3 0.3 0.1 1-0.7 0.8-5.4 2.4-1.6 1.8v1.1l2.7 5.9v9l-3.4 2.5-3.7 1.7zm-111 0.1l-2.7-1.6-2-2-1.7-6.7v-1.2l3.6-7.6 6.8-3.7h8.1l4.6 2.6 4.7 4.8v5l-2.8 3.4-3.9 3.4-6.4 3.4zm-25.9 0.1l-2.5-0.5-2.3-5.9-3.5-18.4-2-7.6-1.1-2 0.8-3.1-0.9-3 0.1-4.6 2.4-1.7 2.8 1.7 1.8 3.5 3.4 12.7 5.3 24.4v2.1l-1.9 2zm36.8-5.9l1.8-3.5 1.8-7.1-1.7-2.5-2.7-1.9h-2l-7.6 2.6-2.2 2.1-1.5 2.6v7.1l1.8 2.9 2.1 0.5 2.1-2.9 2.3 2.8h2.1zm100.4-7.9l-1.5 2.2 1.6 6.2zm-65.3-3.1l3.7-1.9 3.7-3.7-0.3-2.6-1-0.8-3-0.2-1.1 0.2-2.6 1.5-2.5 3.5-2.6 1.7-2.5 3.6 1.3 0.5 2-0.1zm96 0.6l-6.6-3.5-2.7-6.8-0.1-4 0.5-1.5 1-0.9h2.5l3.5 5.9 3.2 7.1 8.2 1.9-2.1 1.7zm-161-6l-2.3-1.8-1-3.6 1.3-1.3 2.5 3.8 1.5 0.9h2.1l7.6-3.6 3.8-3.2 2.3-2.9 4.6-14.7-1.7-2.4-5.9-2.5-4.7-1.5-2-0.1-7.1 0.1-12.1 3.3-4.3 1.6-0.5 0.8-1.5-0.3-0.9-1.6 2.6-1.2 16.7-4.6 8-0.1 8.7 2.7 8.2 4.1 2.5 3.7 0.1 6-0.1 1.1-4.5 7.6-6.4 4.3-11.2 5.2zm80.1-5.9l-1-0.1-0.4-0.8 26.4-4.1 10.1 0.2 3.4 1.7-28.3 2.9z" />
	</g>
</svg>